:SAMPLES-PER-SECOND 30
:FULLY-SPECIFIED
:DEGREES
49
root  52.2563 36.1882 -0.09175 23.0472 -87.4805 13.331
RightUpLeg  -74.2703 -21.8982 27.2639
RightLeg  40.2776 -2.09747 -2.19814
RightFoot  -8.23262 0.262236 -11.647
RightToes  2.32829e-010 0 -3.6325e-017
Spine  72.7251 -6.35402 10.2109
Spine1  -0.40584 1.34754 -3.79914
HEad  -54.7029 -5.92859 -0.979369
LeftShoulder1  10.6997 -27.3102 -28.4107
LeftArm  -66.3365 -57.4846 12.971
LeftForeArm  -1.02058 -27.5981 -6.00507
LeftHand  -0.244104 0.0205437 5.32207
RightShoulder  4.53764 15.0592 17.8567
RightArm  -55.7277 48.8094 -8.08258
RightForeArm  -23.8528 35.4826 9.25012
RightHand  0.25877 3.6625 3.06142
LeftUpLeg  -81.3025 29.463 -38.3955
LeftLeg  38.3389 -5.84227 -4.56654
LeftFoot  -3.74722 -0.607733 9.47644
LeftToes  1.42787e-010 7.94111e-011 2.6399e-011
50
root  52.1826 36.5904 0.00184642 23.958 -87.3915 11.2619
RightUpLeg  -71.6701 -23.0179 27.0078
RightLeg  37.6218 -1.66861 -1.65974
RightFoot  -7.21007 0.375307 -11.6984
RightToes  2.32829e-010 0 -3.6325e-017
Spine  71.6863 -6.49072 10.5531
Spine1  -0.0850622 1.26527 -3.39989
HEad  -54.8863 -5.98319 -1.36991
LeftShoulder1  10.7813 -27.2535 -28.7492
LeftArm  -60.437 -56.2784 8.5818
LeftForeArm  -2.57139 -28.2422 -6.24028
LeftHand  -0.244104 0.0205437 5.32207
RightShoulder  4.81732 15.3153 19.0996
RightArm  -52.0518 47.7133 -5.96031
RightForeArm  -25.9541 36.5474 9.67126
RightHand  0.199826 3.43331 2.3839
LeftUpLeg  -78.8042 30.6074 -38.2404
LeftLeg  35.7732 -6.58252 -4.7122
LeftFoot  -2.84543 -0.695834 9.57899
LeftToes  1.42787e-010 7.94111e-011 2.6399e-011
51
root  52.0979 36.9999 0.0921156 22.8078 -87.641 11.3679
RightUpLeg  -68.9966 -23.9298 26.6289
RightLeg  34.7533 -1.1181 -1.09991
RightFoot  -6.0808 0.499686 -11.7142
RightToes  2.32829e-010 0 -3.6325e-017
Spine  70.282 -6.39996 10.6536
Spine1  0.406642 1.22759 -2.96852
HEad  -55.107 -5.95974 -1.9178
LeftShoulder1  10.9986 -27.0194 -29.7535
LeftArm  -54.0093 -54.8089 4.11683
LeftForeArm  -4.01928 -29.2351 -6.55851
LeftHand  -0.244104 0.0205437 5.32207
RightShoulder  5.0525 15.5495 20.0876
RightArm  -48.2455 46.2753 -3.44496
RightForeArm  -26.7776 37.7459 10.091
RightHand  0.156778 3.34818 1.84122
LeftUpLeg  -76.2198 31.7964 -38.1132
LeftLeg  32.8421 -7.31954 -4.71666
LeftFoot  -1.9634 -0.765361 9.45174
LeftToes  1.42787e-010 7.94111e-011 2.6399e-011
52
root  52.0081 37.3835 0.178353 10.2113 -88.2136 23.3027
RightUpLeg  -66.7173 -24.4893 25.9485
RightLeg  31.9344 -0.44518 -0.552452
RightFoot  -4.8138 0.639781 -11.7314
RightToes  2.32829e-010 0 -3.6325e-017
Spine  68.1449 -5.98988 10.394
Spine1  1.0824 1.17126 -2.53152
HEad  -55.4731 -5.88836 -2.49122
LeftShoulder1  11.2529 -26.7742 -30.9052
LeftArm  -47.8574 -52.7756 -0.713359
LeftForeArm  -4.61143 -30.682 -6.95453
LeftHand  -0.244104 0.0205437 5.32207
RightShoulder  5.14421 15.5266 20.6365
RightArm  -44.3512 44.3557 -0.123048
RightForeArm  -26.3458 39.4488 10.6439
RightHand  0.127551 3.32519 1.45834
LeftUpLeg  -73.6978 32.6473 -38.2433
LeftLeg  29.5166 -7.60479 -4.29899
LeftFoot  -1.00427 -0.852928 9.471
LeftToes  1.42787e-010 7.94111e-011 2.6399e-011
53
root  51.9002 37.752 0.250906 -19.5432 -88.6324 52.2309
RightUpLeg  -64.2336 -24.9862 24.8633
RightLeg  29.1953 0.261986 -0.0834
RightFoot  -3.53628 0.772629 -11.6264
RightToes  2.32829e-010 0 -3.6325e-017
Spine  65.9177 -5.58751 9.9525
Spine1  1.59137 1.0611 -2.35658
HEad  -55.7219 -5.81542 -2.89378
LeftShoulder1  11.4557 -26.5112 -31.9188
LeftArm  -42.2725 -49.8877 -5.83675
LeftForeArm  -4.28288 -32.9179 -7.52767
LeftHand  -0.244104 0.0205437 5.32207
RightShoulder  5.33165 15.4302 21.8393
RightArm  -40.3656 41.964 2.90341
RightForeArm  -25.5905 41.7481 11.4337
RightHand  0.0919243 3.22258 1.00222
LeftUpLeg  -70.7049 33.3455 -37.9154
LeftLeg  26.1521 -7.34937 -3.57907
LeftFoot  -0.0712263 -0.926186 9.37121
LeftToes  1.42787e-010 7.94111e-011 2.6399e-011
54
root  51.7587 38.1118 0.294945 -55.6478 -88.5636 86.9124
RightUpLeg  -61.0131 -25.6661 23.4037
RightLeg  26.5583 0.887348 0.249538
RightFoot  -2.56595 0.832568 -11.0324
RightToes  2.32829e-010 0 -3.6325e-017
Spine  64.0188 -5.2468 9.5243
Spine1  1.95851 0.972522 -2.21227
HEad  -55.8444 -5.91986 -3.29059
LeftShoulder1  11.6395 -26.1247 -33.0462
LeftArm  -37.5627 -46.3982 -10.7555
LeftForeArm  -3.11514 -35.9853 -8.32901
LeftHand  -0.244104 0.0205437 5.32207
RightShoulder  5.65042 15.2351 23.9529
RightArm  -36.5138 39.3705 4.90688
RightForeArm  -24.7791 44.3801 12.4247
RightHand  0.0624814 2.95807 0.644364
LeftUpLeg  -66.7994 34.0227 -36.433
LeftLeg  23.0717 -6.71378 -2.79785
LeftFoot  0.732272 -0.924188 8.68148
LeftToes  1.42787e-010 7.94111e-011 2.6399e-011
